<svg width="90" height="90" viewBox="0 0 90 90" fill="none" xmlns="http://www.w3.org/2000/svg">
<rect width="90" height="90" rx="8" fill="#007ACC"/>
<path d="M71.7765 41.3656C73.8906 41.8529 75.8114 42.9579 77.2938 44.5395C78.1089 45.3963 78.8188 46.347 79.4084 47.3715C79.4357 47.483 75.6012 50.0548 73.2756 51.4893C73.1912 51.5463 72.8561 51.1821 72.4764 50.6222C72.0523 49.8925 71.4495 49.2824 70.7245 48.8491C69.9995 48.4157 69.1761 48.1733 68.3316 48.1445C65.6586 47.9612 63.9361 49.3586 63.9485 51.695C63.9254 52.269 64.0565 52.8387 64.3282 53.3451C64.9165 54.5592 66.0085 55.2876 69.4385 56.7717C75.7526 59.4847 78.4628 61.2736 80.1356 63.8157C81.0809 65.422 81.663 67.2151 81.8414 69.0695C82.0197 70.9239 81.7899 72.7949 81.1681 74.5514C80.3139 76.4782 78.9582 78.1414 77.242 79.368C75.5257 80.5945 73.5116 81.3397 71.4092 81.526C69.1745 81.7793 66.9171 81.756 64.6881 81.4566C61.2742 80.8968 58.1293 79.261 55.7135 76.7887C54.8011 75.7622 54.0284 74.62 53.4152 73.3918C53.6743 73.2028 53.9454 73.0306 54.2268 72.8765C54.6189 72.6535 56.1031 71.8012 57.5029 70.991L60.0444 69.5044L60.5756 70.2774C61.4716 71.5533 62.61 72.6409 63.9262 73.4785C65.2566 74.207 66.7635 74.5522 68.279 74.4756C69.7944 74.3991 71.2587 73.9038 72.5087 73.0449C73.1534 72.4176 73.5565 71.5838 73.6472 70.6896C73.738 69.7953 73.5107 68.8978 73.0051 68.1541C72.32 67.1754 70.9202 66.3528 66.9417 64.6308C63.8221 63.5807 60.9806 61.8401 58.6297 59.5392C57.5111 58.265 56.6844 56.7625 56.2074 55.1365C55.8547 53.2837 55.8027 51.3864 56.0535 49.5171C56.5199 47.3658 57.6378 45.4098 59.2557 43.9143C60.8736 42.4189 62.9132 41.4564 65.0976 41.1575C67.3218 40.8922 69.5733 40.9624 71.7765 41.3656ZM51.0698 45.04L51.0971 48.6425H39.6058V81.2187H31.5023V48.6499H20.011V45.1119C19.9805 43.9002 20.0136 42.6878 20.1102 41.4796C20.1524 41.4226 27.1391 41.3954 35.6099 41.4102L51.0251 41.4524L51.0698 45.04Z" fill="white"/>
</svg>
