<svg width="84" height="84" viewBox="0 0 84 84" fill="none" xmlns="http://www.w3.org/2000/svg">
<path d="M34.0837 62.5332C34.5837 62.5332 34.9629 62.5166 35.2129 62.4832C35.5061 62.4239 35.7706 62.2667 35.9628 62.0374C36.2128 61.7749 36.3378 61.3957 36.3378 60.8957L36.3212 58.5749C36.3087 57.0957 36.3045 55.9207 36.3045 55.0582L35.5212 55.1957C34.8943 55.2944 34.2596 55.3335 33.6253 55.3124C32.8285 55.2983 32.0342 55.2189 31.2504 55.0749C30.4185 54.9198 29.6357 54.5684 28.967 54.0499C28.266 53.5196 27.7429 52.7886 27.467 51.9541L27.1254 51.1666C26.838 50.5464 26.477 49.963 26.0504 49.4291C25.6673 48.8815 25.1568 48.4354 24.5629 48.1291L24.3254 47.9624C24.1618 47.8419 24.0135 47.702 23.8837 47.5457C23.7577 47.4037 23.6538 47.2436 23.5754 47.0707C23.5087 46.9124 23.5629 46.7791 23.742 46.6791C24.0565 46.5527 24.3957 46.5 24.7337 46.5249L25.417 46.6291C25.8754 46.7166 26.4379 46.9916 27.1087 47.4457C27.7754 47.9041 28.3295 48.4916 28.7629 49.2207C29.2879 50.1541 29.917 50.8666 30.6587 51.3541C31.3133 51.8157 32.0911 52.0711 32.892 52.0874C33.642 52.0874 34.292 52.0332 34.8379 51.9207C35.3691 51.8105 35.8853 51.6371 36.3753 51.4041C36.5795 49.8832 37.1337 48.7082 38.042 47.8916C36.8628 47.7749 35.6941 47.5688 34.5462 47.2749C33.4253 46.966 32.3475 46.5181 31.3379 45.9416C30.2805 45.3679 29.3461 44.5921 28.5879 43.6582C27.8629 42.7457 27.267 41.5541 26.7962 40.0749C26.3053 38.4133 26.0706 36.6865 26.1004 34.9541C26.1004 32.2041 27.0004 29.8582 28.7962 27.9249C27.9545 25.8541 28.0337 23.5332 29.0337 20.9624C29.6962 20.7541 30.6754 20.9082 31.9712 21.4207C33.267 21.9332 34.2212 22.3707 34.8212 22.7374C35.4254 23.0999 35.9045 23.4041 36.2712 23.6541C38.4053 23.0614 40.6105 22.7642 42.8253 22.7707C45.0753 22.7707 47.2628 23.0624 49.3795 23.6582L50.6712 22.8374C51.5629 22.2957 52.6087 21.7916 53.8128 21.3374C55.0212 20.8791 55.942 20.7541 56.5795 20.9624C57.6045 23.5332 57.6962 25.8541 56.8504 27.9207C58.6504 29.8582 59.5503 32.1999 59.5503 34.9541C59.5503 36.8874 59.317 38.5999 58.8503 40.0916C58.3837 41.5832 57.7795 42.7749 57.042 43.6749C56.2713 44.5996 55.3326 45.3701 54.2754 45.9457C53.2658 46.5224 52.1879 46.9703 51.067 47.2791C49.9176 47.5718 48.7475 47.7766 47.567 47.8916C48.7504 48.9124 49.342 50.5291 49.342 52.7374V60.8916C49.342 61.2791 49.4004 61.5916 49.5129 61.8332C49.5658 61.9484 49.6414 62.0516 49.7352 62.1368C49.829 62.222 49.939 62.2874 50.0587 62.3291C50.3087 62.4166 50.5337 62.4749 50.7253 62.4957C50.9212 62.5207 51.1962 62.5332 51.5587 62.5332H34.0837Z" fill="black"/>
<path d="M41.6667 75C50.5072 75 58.9857 71.4881 65.2369 65.2369C71.4881 58.9857 75 50.5072 75 41.6667C75 32.8261 71.4881 24.3477 65.2369 18.0964C58.9857 11.8452 50.5072 8.33333 41.6667 8.33333C32.8261 8.33333 24.3477 11.8452 18.0964 18.0964C11.8452 24.3477 8.33333 32.8261 8.33333 41.6667C8.33333 50.5072 11.8452 58.9857 18.0964 65.2369C24.3477 71.4881 32.8261 75 41.6667 75ZM41.6667 83.3333C18.6542 83.3333 0 64.6792 0 41.6667C0 18.6542 18.6542 0 41.6667 0C64.6792 0 83.3333 18.6542 83.3333 41.6667C83.3333 64.6792 64.6792 83.3333 41.6667 83.3333Z" fill="black"/>
</svg>
